<svg width="158" height="45" viewBox="0 0 158 45" fill="none" xmlns="http://www.w3.org/2000/svg">
<g clip-path="url(#clip0_160_3985)">
<path d="M17.8715 7.38306V19.9605H6.41147V7.38306H0.970703V37.4067H6.41147V25.2376H17.8715V37.4067H23.3122V7.38306H17.8715Z" fill="white"/>
<path d="M40.7236 27.6987C40.7236 28.9019 40.2494 30.0559 39.4053 30.9067C38.5611 31.7576 37.4163 32.2356 36.2225 32.2356C35.0287 32.2356 33.8839 31.7576 33.0398 30.9067C32.1956 30.0559 31.7214 28.9019 31.7214 27.6987V14.8391H26.5605V27.6987C26.5605 30.2791 27.5775 32.7538 29.3877 34.5784C31.198 36.403 33.6531 37.428 36.2132 37.428C38.7732 37.428 41.2284 36.403 43.0386 34.5784C44.8488 32.7538 45.8658 30.2791 45.8658 27.6987V14.8391H40.7236V27.6987Z" fill="white"/>
<path d="M78.9611 16.1641C78.9611 13.5283 80.6912 12.6927 82.5866 12.6927C84.114 12.6927 86.132 13.8641 87.4515 15.2855L90.8317 11.2713C89.1443 8.97127 85.7215 7.38062 82.9198 7.38062C77.3217 7.38062 73.2725 10.6855 73.2725 16.1641C73.2725 26.3288 85.5988 23.1045 85.5988 28.7927C85.5988 30.5472 83.9088 32.0976 81.9734 32.0976C78.9212 32.0976 77.9322 30.5929 76.53 29.0022L72.7793 32.9332C75.1785 35.9022 78.1374 37.4096 81.6829 37.4096C87.001 37.4096 91.2795 34.0644 91.2795 28.8356C91.2795 17.5506 78.9531 21.057 78.9531 16.1641" fill="white"/>
<path d="M155.217 32.6069C152.168 32.6069 151.301 31.2769 151.301 29.2402V20.2256H156.041V15.6579H151.301V9.6311L146.068 11.9983V30.3607C146.068 35.0574 149.283 37.4246 153.692 37.4246C154.384 37.4373 155.075 37.3815 155.756 37.258L157.033 32.5209C156.457 32.5613 155.796 32.6016 155.217 32.6016" fill="white"/>
<path d="M60.3682 14.9891C57.8117 14.9891 56.0284 15.7361 54.3036 17.4423V7.55981H49.1348V25.8765C49.1348 32.7335 54.0531 37.4303 59.5791 37.4303C65.7103 37.4303 71.1031 32.6502 71.1031 26.2124C71.1031 19.8551 66.1395 14.9918 60.3682 14.9918V14.9891ZM60.3362 32.1881C59.1763 32.1881 58.0424 31.8414 57.078 31.1919C56.1135 30.5423 55.3619 29.6191 54.918 28.539C54.4741 27.4589 54.358 26.2703 54.5843 25.1237C54.8105 23.977 55.3691 22.9237 56.1893 22.097C57.0095 21.2703 58.0544 20.7073 59.1921 20.4792C60.3297 20.2512 61.5089 20.3682 62.5805 20.8156C63.6521 21.263 64.568 22.0207 65.2124 22.9928C65.8569 23.9649 66.2008 25.1077 66.2008 26.2769C66.2008 27.8446 65.5829 29.3482 64.4831 30.4567C63.3833 31.5653 61.8916 32.1881 60.3362 32.1881Z" fill="white"/>
<path d="M116.494 25.9382C116.494 19.4896 111.112 14.7203 104.97 14.7203C99.4437 14.7203 94.5254 19.4171 94.5254 26.2741V44.6015H99.6942V34.7056C101.416 36.4091 103.202 37.1588 105.756 37.1588C111.527 37.1588 116.491 32.2981 116.491 25.9382H116.494ZM111.599 25.8737C111.599 27.0429 111.255 28.1857 110.611 29.1578C109.967 30.1299 109.051 30.8876 107.979 31.335C106.907 31.7824 105.728 31.8994 104.591 31.6714C103.453 31.4433 102.408 30.8803 101.588 30.0536C100.768 29.2269 100.209 28.1736 99.9829 27.0269C99.7566 25.8803 99.8727 24.6917 100.317 23.6116C100.76 22.5315 101.512 21.6083 102.477 20.9587C103.441 20.3092 104.575 19.9625 105.735 19.9625C107.29 19.9625 108.782 20.5853 109.882 21.6939C110.982 22.8024 111.599 24.306 111.599 25.8737Z" fill="white"/>
<path d="M133.19 14.4693V9.23518C133.876 8.91198 134.457 8.39895 134.865 7.75583C135.274 7.11271 135.492 6.36594 135.496 5.60247V5.48155C135.496 4.41263 135.074 3.38749 134.325 2.63165C133.575 1.87581 132.558 1.45118 131.497 1.45118H131.377C130.317 1.45118 129.3 1.87581 128.55 2.63165C127.8 3.38749 127.379 4.41263 127.379 5.48155V5.60247C127.382 6.36594 127.601 7.11271 128.009 7.75583C128.417 8.39895 128.998 8.91198 129.684 9.23518V14.4693C127.712 14.7734 125.854 15.5975 124.3 16.858L110.059 5.6777C110.16 5.30902 110.214 4.92889 110.219 4.54651C110.221 3.64829 109.958 2.76978 109.464 2.02209C108.97 1.2744 108.268 0.691131 107.445 0.346048C106.622 0.000965715 105.716 -0.0904229 104.842 0.0834418C103.968 0.257307 103.164 0.688614 102.533 1.32281C101.902 1.957 101.472 2.76559 101.297 3.64631C101.122 4.52702 101.21 5.44028 101.55 6.27058C101.89 7.10088 102.466 7.81092 103.206 8.31088C103.947 8.81085 104.818 9.07827 105.709 9.07934C106.488 9.07583 107.253 8.86645 107.927 8.47209L121.951 19.4696C120.691 21.388 120.033 23.6446 120.064 25.9452C120.095 28.2457 120.813 30.4835 122.124 32.3668L117.859 36.6659C117.514 36.5549 117.155 36.496 116.793 36.4913C116.061 36.4918 115.346 36.7109 114.738 37.1209C114.13 37.5309 113.656 38.1134 113.377 38.7947C113.097 39.4761 113.024 40.2257 113.167 40.9489C113.31 41.6721 113.662 42.3364 114.179 42.8578C114.697 43.3792 115.356 43.7344 116.073 43.8784C116.791 44.0223 117.534 43.9487 118.21 43.6668C118.886 43.3848 119.464 42.9072 119.871 42.2943C120.278 41.6815 120.495 40.9608 120.496 40.2234C120.491 39.8585 120.433 39.4962 120.322 39.1486L124.542 34.8952C125.918 35.9625 127.518 36.6982 129.22 37.046C130.922 37.3938 132.68 37.3444 134.359 36.9016C136.039 36.4588 137.596 35.6344 138.911 34.4915C140.226 33.3486 141.264 31.9175 141.945 30.3079C142.627 28.6983 142.934 26.9528 142.842 25.2051C142.751 23.4575 142.265 21.754 141.42 20.2253C140.574 18.6965 139.393 17.383 137.967 16.3853C136.54 15.3876 134.906 14.7322 133.19 14.4693ZM131.441 31.6817C130.287 31.6806 129.159 31.3347 128.199 30.6876C127.24 30.0405 126.493 29.1212 126.052 28.0461C125.61 26.9709 125.495 25.7881 125.721 24.6471C125.947 23.506 126.503 22.458 127.319 21.6355C128.136 20.813 129.176 20.2529 130.308 20.026C131.44 19.7991 132.613 19.9155 133.68 20.3606C134.746 20.8058 135.658 21.5596 136.3 22.5268C136.941 23.494 137.284 24.6312 137.284 25.7946C137.284 27.3553 136.669 28.852 135.574 29.9555C134.48 31.059 132.995 31.679 131.446 31.679" fill="white"/>
</g>
<defs>
<clipPath id="clip0_160_3985">
<rect width="156.063" height="44.5894" fill="white" transform="translate(0.96875)"/>
</clipPath>
</defs>
</svg>
